Coordinates
version=1
nRows=15
nColumns=42
inDegrees=yes

Units are S.I. units (second, meters, Newtons, ...)
If the header above contains a line with 'inDegrees', this indicates whether rotational values are in degrees (yes) or radians (no).

endheader
time	pelvis_tilt	pelvis_list	pelvis_rotation	pelvis_tx	pelvis_ty	pelvis_tz	hip_flexion_r	hip_adduction_r	hip_rotation_r	knee_angle_r	knee_adduction_r	knee_angle_r_beta	ankle_angle_r	subtalar_angle_r	mtp_angle_r	hip_flexion_l	hip_adduction_l	hip_rotation_l	knee_angle_l	knee_adduction_l	knee_angle_l_beta	ankle_angle_l	subtalar_angle_l	mtp_angle_l	lumbar_extension	lumbar_bending	lumbar_rotation	arm_flex_r	arm_add_r	arm_rot_r	elbow_flex_r	pro_sup_r	wrist_flex_r	wrist_dev_r	arm_flex_l	arm_add_l	arm_rot_l	elbow_flex_l	pro_sup_l	wrist_flex_l	wrist_dev_l
      0.44000000	      9.98702412	      2.57305534	     -4.03533279	     -1.67574201	      0.97238739	      0.34667357	    -14.00789377	     -3.14781272	    -35.67674025	     26.38826961	    -10.46939378	      0.46056219	     26.80861632	     29.18404768	     -9.51014939	     17.94725336	      0.86213719	    -14.98690017	     15.83866361	     -4.95728700	      0.27643683	     -1.62118845	     13.49813599	     -9.51014939	    -26.26853242	     -6.42960382	      7.58114740	     30.71418218	    -19.09490761	     29.83339099	     42.18790045	     90.00000001	      0.00000000	      0.00000000	    -14.97059815	     -9.29931424	      2.50555457	     41.03513379	     90.00000001	      0.00000000	      0.00000000
      0.45000000	      9.69120485	      2.69123817	     -4.25521653	     -1.66695526	      0.97222426	      0.34536952	    -14.19166994	     -3.50440025	    -35.47655329	     26.41675223	    -10.47281367	      0.46105930	     26.37387056	     29.35594458	     -9.49083737	     17.47091922	      1.15662993	    -15.64283516	     15.17038360	     -5.15153701	      0.26477314	     -2.48144281	     13.77427353	     -9.49083737	    -25.78247385	     -6.69427100	      7.51250286	     30.30337179	    -18.92658972	     29.91501420	     42.15696847	     90.00000001	      0.00000000	      0.00000000	    -14.95461023	     -9.27825870	      2.58270787	     40.93207428	     90.00000001	      0.00000000	      0.00000000
      0.46000000	      9.51286937	      2.82175635	     -4.42624813	     -1.65803466	      0.97236324	      0.34395616	    -14.49508748	     -3.94427883	    -35.42776419	     26.51998430	    -10.42717837	      0.46286104	     25.75402820	     29.79768104	     -9.36296180	     16.99873626	      1.38628406	    -17.10609732	     14.68129654	     -5.44290084	      0.25623696	     -3.33879272	     15.59229249	     -9.36296180	    -25.44007558	     -6.96122662	      7.43961913	     29.76683879	    -18.84380349	     29.88399849	     42.26273750	     90.00000001	      0.00000000	      0.00000000	    -14.72368965	     -9.31391760	      2.97250954	     40.52305579	     90.00000001	      0.00000000	      0.00000000
      0.47000000	      9.23792181	      3.03397703	     -4.56080249	     -1.64910554	      0.97258878	      0.34242600	    -14.63923131	     -4.42330806	    -35.22534642	     26.69006449	    -10.42228872	      0.46582950	     25.06964086	     29.87051435	     -9.34367927	     16.51989356	      1.79329597	    -17.80448299	     14.01870874	     -5.61773593	      0.24467262	     -4.19499281	     15.93709697	     -9.34367927	    -24.99391655	     -7.30399895	      7.28884932	     29.29526916	    -18.70446823	     29.95372216	     42.21376594	     90.00000001	      0.00000000	      0.00000000	    -14.65931537	     -9.34870759	      3.01181466	     40.45545583	     90.00000001	      0.00000000	      0.00000000
      0.48000000	      8.96670609	      3.17139912	     -4.65456328	     -1.64011509	      0.97301578	      0.34093149	    -14.77101024	     -4.83527167	    -35.09285809	     26.89102512	    -10.39220262	      0.46933693	     24.44460564	     29.90557432	     -9.33244028	     16.06508363	      2.06960553	    -18.40360505	     13.48373171	     -5.67515279	      0.23533551	     -4.76591002	     16.23427802	     -9.33244028	    -24.56199089	     -7.57380579	      7.06856964	     28.70480993	    -18.51499938	     30.03955016	     42.16107348	     90.00000001	      0.00000000	      0.00000000	    -14.56361042	     -9.46278372	      3.03671084	     40.35343626	     90.00000001	      0.00000000	      0.00000000
      0.49000000	      8.82351363	      3.48952434	     -4.70815228	     -1.63119149	      0.97375477	      0.33899202	    -14.94006619	     -5.52817661	    -34.90976612	     27.34293342	    -10.32647701	      0.47722422	     23.25794735	     29.86490424	     -9.31224964	     15.49351147	      2.65324772	    -19.15055656	     12.85220054	     -5.87668535	      0.22431322	     -5.73884094	     16.91146255	     -9.31224964	    -24.33591329	     -7.98353228	      6.83026846	     28.18328513	    -18.46922567	     30.02407598	     42.12014676	     90.00000001	      0.00000000	      0.00000000	    -14.27375686	     -9.51493884	      3.13850019	     40.17885784	     90.00000001	      0.00000000	      0.00000000
      0.50000000	      8.67690147	      3.70719044	     -4.71539189	     -1.62220941	      0.97468365	      0.33716421	    -15.07540200	     -6.09418564	    -34.75889719	     27.82112128	    -10.26462388	      0.48557017	     22.03655655	     29.69561028	     -9.28369547	     14.97432718	      3.06862509	    -19.86077664	     12.39777586	     -6.01901643	      0.21638201	     -6.39201460	     17.78229933	     -9.28369547	    -24.10945438	     -8.29068611	      6.55945432	     27.54610488	    -18.36178459	     29.95409674	     42.11224479	     90.00000001	      0.00000000	      0.00000000	    -13.94777169	     -9.66617523	      3.27912587	     39.92681975	     90.00000001	      0.00000000	      0.00000000
      0.51000000	      8.49858427	      3.97897718	     -4.68461289	     -1.61323961	      0.97571861	      0.33518898	    -15.08271280	     -6.73099238	    -34.55001866	     28.49338527	    -10.22686441	      0.49730339	     20.80473484	     29.44574603	     -9.26315579	     14.49954847	      3.54390828	    -20.40475809	     11.98828666	     -6.07170968	      0.20923507	     -6.64395354	     18.32045548	     -9.26315579	    -23.86293842	     -8.63853721	      6.26360796	     26.89355936	    -18.26003046	     29.90758182	     42.06522947	     90.00000001	      0.00000000	      0.00000000	    -13.63450074	     -9.81884346	      3.36968133	     39.79374176	     90.00000001	      0.00000000	      0.00000000
      0.52000000	      8.36896005	      4.21276593	     -4.60249674	     -1.60431641	      0.97693875	      0.33315370	    -15.05934257	     -7.36268728	    -34.38194734	     29.32738324	    -10.17580651	      0.51185940	     19.36772857	     29.04176658	     -9.24271199	     14.00065016	      3.99865870	    -20.78521532	     11.66567336	     -6.12431172	      0.20360441	     -6.83165380	     18.86036050	     -9.24271199	    -23.69716113	     -8.93387546	      5.94310747	     26.21381680	    -18.15783823	     29.82988115	     42.01547362	     90.00000001	      0.00000000	      0.00000000	    -13.25389024	    -10.01959228	      3.45977528	     39.65720286	     90.00000001	      0.00000000	      0.00000000
      0.53000000	      8.25689448	      4.44642394	     -4.46934759	     -1.59544313	      0.97829334	      0.33101318	    -14.95733091	     -8.00266872	    -34.19396248	     30.34330255	    -10.14455141	      0.52959054	     17.75155342	     28.46738130	     -9.22216574	     13.49675348	      4.46290172	    -21.04961826	     11.39757084	     -6.16097483	      0.19892514	     -6.85278432	     19.35162314	     -9.22216574	    -23.59191528	     -9.20157853	      5.58487229	     25.51165658	    -18.08767261	     29.71454861	     41.95448896	     90.00000001	      0.00000000	      0.00000000	    -12.81398184	    -10.21483132	      3.56085722	     39.53060382	     90.00000001	      0.00000000	      0.00000000
      0.54000000	      8.19120083	      4.55346441	     -4.28479941	     -1.58659696	      0.97988961	      0.32888290	    -14.87270733	     -8.42193551	    -33.68062099	     31.38459255	    -10.02531407	      0.54776447	     15.55761731	     26.75482283	     -9.16247951	     12.99086049	      4.78485189	    -21.42566601	     11.24392827	     -6.24934503	      0.19624357	     -6.78473446	     20.40208552	     -9.16247951	    -23.56521754	     -9.33081086	      5.26888873	     24.65548898	    -17.96464696	     29.14995995	     41.98307524	     90.00000001	      0.00000000	      0.00000000	    -12.19091330	    -10.51408423	      3.94733167	     39.07384783	     90.00000001	      0.00000000	      0.00000000
      0.55000000	      8.11818033	      4.71720984	     -4.11228542	     -1.57783107	      0.98148583	      0.32665503	    -14.63628564	     -8.97414341	    -32.96833584	     32.75755431	     -9.80576616	      0.57172718	     13.58207223	     24.70282106	     -9.07489975	     12.49719607	      5.15697063	    -21.67226873	     11.12974105	     -6.26579101	      0.19425063	     -6.41516441	     21.05873632	     -9.07489975	    -23.54140491	     -9.51120144	      4.97658164	     23.80722981	    -17.81216685	     28.54593543	     41.90600343	     90.00000001	      0.00000000	      0.00000000	    -11.57595548	    -10.77501026	      4.34744495	     38.85657741	     90.00000001	      0.00000000	      0.00000000
      0.56000000	      8.05826668	      4.89253956	     -3.93656751	     -1.56923966	      0.98303950	      0.32436325	    -14.19013765	     -9.69643508	    -32.85772106	     34.46402262	     -9.82861282	      0.60151067	     11.76624112	     23.92885387	     -9.05261153	     11.95815103	      5.59424489	    -21.57373243	     10.97767992	     -6.28580983	      0.19159666	     -6.00188956	     21.21214393	     -9.05261153	    -23.56473233	     -9.68851483	      4.59458766	     23.07590233	    -17.74922540	     28.50239751	     41.77808227	     90.00000001	      0.00000000	      0.00000000	    -11.04071619	    -11.02599655	      4.36410311	     38.91412170	     90.00000001	      0.00000000	      0.00000000
      0.57000000	      8.02029795	      4.91632341	     -3.68877493	     -1.56073289	      0.98480852	      0.32216840	    -13.76453498	    -10.04518198	    -31.85017333	     36.16469448	     -9.52642498	      0.63119299	      9.07087546	     20.47405697	     -8.97011823	     11.38381227	      5.84626354	    -21.34198501	     10.86038733	     -6.25173377	      0.18954952	     -5.59301528	     21.46027833	     -8.97011823	    -23.64087498	     -9.69493936	      4.27941057	     22.22031510	    -17.63508159	     27.94660436	     41.68776803	     90.00000001	      0.00000000	      0.00000000	    -10.26027878	    -11.31082385	      4.75067445	     38.50610103	     90.00000001	      0.00000000	      0.00000000
      0.58000000	      7.95434214	      5.00556534	     -3.46353471	     -1.55236473	      0.98633775	      0.31990785	    -13.05971014	    -10.66788286	    -31.60640072	     38.21958321	     -9.55072690	      0.66705757	      6.83670440	     18.85223910	     -8.93238021	     10.84755715	      6.19458585	    -21.10574621	     10.72120932	     -6.26500627	      0.18712040	     -5.07914430	     21.65065693	     -8.93238021	    -23.70136764	     -9.76561044	      3.89194797	     21.45999005	    -17.54857273	     27.80852092	     41.55888242	     90.00000001	      0.00000000	      0.00000000	     -9.61981997	    -11.59349474	      4.84216669	     38.50481641	     90.00000001	      0.00000000	      0.00000000
